<svg width="1440" height="800" viewBox="0 0 1440 800" fill="none" xmlns="http://www.w3.org/2000/svg">
<g clip-path="url(#clip0_545_1744)">
<g opacity="0.05">
<path d="M14 -1L-117 801" stroke="#000016"/>
<path d="M65.2427 -1L-65.7574 801" stroke="#000016"/>
<path d="M116.485 -1L-14.5147 801" stroke="#000016"/>
<path d="M167.728 -1L36.7281 801" stroke="#000016"/>
<path d="M218.971 -1L87.9709 801" stroke="#000016"/>
<path d="M270.214 -1L139.214 801" stroke="#000016"/>
<path d="M321.456 -1L190.456 801" stroke="#000016"/>
<path d="M372.699 -1L241.699 801" stroke="#000016"/>
<path d="M423.942 -1L292.942 801" stroke="#000016"/>
<path d="M475.185 -1L344.185 801" stroke="#000016"/>
<path d="M526.427 -1L395.427 801" stroke="#000016"/>
<path d="M577.67 -1L446.67 801" stroke="#000016"/>
<path d="M628.913 -1L497.913 801" stroke="#000016"/>
<path d="M680.156 -1L549.155 801" stroke="#000016"/>
<path d="M731.398 -1L600.398 801" stroke="#000016"/>
<path d="M782.641 -1L651.641 801" stroke="#000016"/>
<path d="M833.884 -1L702.884 801" stroke="#000016"/>
<path d="M885.126 -1L754.126 801" stroke="#000016"/>
<path d="M936.369 -1L805.369 801" stroke="#000016"/>
<path d="M987.612 -1L856.612 801" stroke="#000016"/>
<path d="M1038.85 -1L907.855 801" stroke="#000016"/>
<path d="M1090.1 -1L959.097 801" stroke="#000016"/>
<path d="M1141.34 -1L1010.34 801" stroke="#000016"/>
<path d="M1192.58 -1L1061.58 801" stroke="#000016"/>
<path d="M1243.83 -1L1112.83 801" stroke="#000016"/>
<path d="M1295.07 -1L1164.07 801" stroke="#000016"/>
<path d="M1346.31 -1L1215.31 801" stroke="#000016"/>
<path d="M1397.55 -1L1266.55 801" stroke="#000016"/>
<path d="M1448.8 -1L1317.8 801" stroke="#000016"/>
<path d="M1500.04 -1L1369.04 801" stroke="#000016"/>
<path d="M1551.28 -1L1420.28 801" stroke="#000016"/>
</g>
<g opacity="0.05">
<line x1="-1" y1="25.5" x2="1441" y2="25.5" stroke="#000016"/>
<line x1="-1" y1="67.5" x2="1441" y2="67.5" stroke="#000016"/>
<line x1="-1" y1="109.5" x2="1441" y2="109.5" stroke="#000016"/>
<line x1="-1" y1="151.5" x2="1441" y2="151.5" stroke="#000016"/>
<line x1="-1" y1="193.5" x2="1441" y2="193.5" stroke="#000016"/>
<line x1="-1" y1="235.5" x2="1441" y2="235.5" stroke="#000016"/>
<line x1="-1" y1="277.5" x2="1441" y2="277.5" stroke="#000016"/>
<line x1="-1" y1="319.5" x2="1441" y2="319.5" stroke="#000016"/>
<line x1="-1" y1="361.5" x2="1441" y2="361.5" stroke="#000016"/>
<line x1="-1" y1="403.5" x2="1441" y2="403.5" stroke="#000016"/>
<line x1="-1" y1="445.5" x2="1441" y2="445.5" stroke="#000016"/>
<line x1="-1" y1="487.5" x2="1441" y2="487.5" stroke="#000016"/>
<line x1="-1" y1="529.5" x2="1441" y2="529.5" stroke="#000016"/>
<line x1="-1" y1="571.5" x2="1441" y2="571.5" stroke="#000016"/>
<line x1="-1" y1="613.5" x2="1441" y2="613.5" stroke="#000016"/>
<line x1="-1" y1="655.5" x2="1441" y2="655.5" stroke="#000016"/>
<line x1="-1" y1="697.5" x2="1441" y2="697.5" stroke="#000016"/>
<line x1="-1" y1="739.5" x2="1441" y2="739.5" stroke="#000016"/>
<line x1="-1" y1="781.5" x2="1441" y2="781.5" stroke="#000016"/>
</g>
</g>
<defs>
<clipPath id="clip0_545_1744">
<rect width="1440" height="800" fill="white"/>
</clipPath>
</defs>
</svg>
